<?xml version="1.0" encoding="UTF-8" standalone="no"?>
<!-- Created with Inkscape (http://www.inkscape.org/) -->

<svg
   version="1.1"
   id="svg2"
   width="525.46667"
   height="610.59998"
   viewBox="0 0 525.46667 610.59998"
   sodipodi:docname="4220711.eps"
   xmlns:inkscape="http://www.inkscape.org/namespaces/inkscape"
   xmlns:sodipodi="http://sodipodi.sourceforge.net/DTD/sodipodi-0.dtd"
   xmlns="http://www.w3.org/2000/svg"
   xmlns:svg="http://www.w3.org/2000/svg">
  <defs
     id="defs6" />
  <sodipodi:namedview
     id="namedview4"
     pagecolor="#ffffff"
     bordercolor="#000000"
     borderopacity="0.25"
     inkscape:showpageshadow="2"
     inkscape:pageopacity="0.0"
     inkscape:pagecheckerboard="0"
     inkscape:deskcolor="#d1d1d1" />
  <g
     id="g8"
     inkscape:groupmode="layer"
     inkscape:label="ink_ext_XXXXXX"
     transform="matrix(1.3333333,0,0,-1.3333333,0,610.6)">
    <g
       id="g10"
       transform="scale(0.1)">
      <path
         d="M 3941.01,1119.36 C 3941.01,501.16 3058.78,0 1970.5,0 882.223,0 -0.00390625,501.16 -0.00390625,1119.36 -0.00390625,1737.57 882.223,2238.73 1970.5,2238.73 c 1088.28,0 1970.51,-501.16 1970.51,-1119.37"
         style="fill:#f3f2f1;fill-opacity:1;fill-rule:nonzero;stroke:none"
         id="path12" />
      <path
         d="m 2790.55,413.57 -1470.98,849.28 c -56.7,32.74 -56.67,114.59 0.05,147.28 l 145.11,91.47 c 50.97,29.37 113.72,29.34 164.66,-0.07 l 1471,-849.268 c 56.69,-32.742 56.66,-114.59 -0.07,-147.282 L 2955.21,413.5 c -50.96,-29.359 -113.71,-29.34 -164.66,0.07"
         style="fill:#dadbd8;fill-opacity:1;fill-rule:nonzero;stroke:none"
         id="path14" />
      <path
         d="m 873.246,1371.1 c 0,-101.22 -142.93,-183.28 -319.246,-183.28 -176.309,0 -319.238,82.06 -319.238,183.28 0,101.22 142.929,183.28 319.238,183.28 176.316,0 319.246,-82.06 319.246,-183.28"
         style="fill:#e2e2e0;fill-opacity:1;fill-rule:nonzero;stroke:none"
         id="path16" />
      <path
         d="m 3312.06,1145.83 140.07,-80.52 c 0,0 -71.52,224.71 -33.42,451.27 14.38,85.51 45.26,128.1 56.13,150.95 10.87,22.86 94.45,164.44 20.01,229.19 -74.46,64.76 -247.84,-65.51 -238.45,-414.13 4.82,-178.92 55.66,-336.76 55.66,-336.76"
         style="fill:#ad58b2;fill-opacity:1;fill-rule:nonzero;stroke:none"
         id="path18" />
      <path
         d="m 3452.13,1065.31 -140.07,80.52 c 0,0 -50.84,157.84 -55.66,336.76 -0.24,9.1 -0.36,18.05 -0.37,26.86 -0.03,272.99 114.89,403.29 195.33,403.29 16.33,0 31.25,-5.37 43.49,-16.02 22.46,-19.54 30.54,-46.07 30.56,-74.23 0.06,-65.16 -42.98,-139 -50.57,-154.96 -10.87,-22.85 -41.75,-65.44 -56.13,-150.95 -8.02,-47.68 -11.18,-95.28 -11.18,-140.72 0.02,-170.47 44.6,-310.55 44.6,-310.55"
         style="fill:#5d2b68;fill-opacity:1;fill-rule:nonzero;stroke:none"
         id="path20" />
      <path
         d="m 3377.18,1103.39 c -2.03,0 -3.93,1.24 -4.68,3.26 -0.54,1.45 -53.96,147.67 -52.25,382.72 1.71,236.17 125.14,362.57 126.39,363.81 1.95,1.97 5.1,1.96 7.06,0.01 1.96,-1.95 1.96,-5.11 0.02,-7.07 -1.22,-1.22 -121.8,-124.96 -123.47,-356.82 -1.69,-233.06 51.08,-377.73 51.62,-379.16 0.96,-2.59 -0.35,-5.47 -2.94,-6.43 l -1.75,-0.32"
         style="fill:#ffffff;fill-opacity:1;fill-rule:nonzero;stroke:none"
         id="path22" />
      <path
         d="m 3370.47,1111.44 191.43,-109.57 c 41.46,-23.729 95.7,-13.491 122.2,26.26 10.96,16.44 17.7,38.1 15.08,66.49 -9.18,99.38 -52.38,122.31 0.56,166.65 52.95,44.33 66.71,47.4 63.65,90.2 -3.05,42.81 -32.11,61.16 -45.87,77.98 -13.76,16.81 -51.98,51.98 -25.98,103.96 25.98,51.98 61.42,102.32 7.64,125.36 -32.1,13.77 -85.62,-4.58 -120.78,-42.8 -35.16,-38.23 -64.22,-65.75 -97.85,-74.92 -33.63,-9.17 -103.96,-10.7 -100.91,-68.79 3.06,-58.1 18.39,-78 4.59,-103.97 -25.99,-48.92 -139.13,-76.44 -13.76,-256.85"
         style="fill:#ad58b2;fill-opacity:1;fill-rule:nonzero;stroke:none"
         id="path24" />
      <path
         d="m 3465.1,1052.27 c -2.55,0 -4.72,1.95 -4.97,4.54 -0.32,3.44 -29.44,346.62 206.53,574.98 1.98,1.92 5.14,1.87 7.07,-0.12 1.92,-1.98 1.86,-5.15 -0.12,-7.07 -232.56,-225.05 -203.84,-563.47 -203.52,-566.86 0.26,-2.75 -1.76,-5.19 -4.51,-5.45 l -0.48,-0.02"
         style="fill:#ffffff;fill-opacity:1;fill-rule:nonzero;stroke:none"
         id="path26" />
      <path
         d="m 3502.99,1347.67 c -2.56,0 -4.74,1.96 -4.97,4.57 -7.83,91.07 -71.68,136.87 -72.32,137.32 -2.27,1.59 -2.81,4.71 -1.22,6.97 1.59,2.26 4.72,2.81 6.96,1.22 2.78,-1.95 68.31,-48.98 76.54,-144.66 0.24,-2.75 -1.79,-5.17 -4.55,-5.41 l -0.44,-0.01"
         style="fill:#ffffff;fill-opacity:1;fill-rule:nonzero;stroke:none"
         id="path28" />
      <path
         d="m 3486.67,1288.74 c -1.18,0 -2.36,0.41 -3.31,1.25 -2.07,1.82 -2.27,4.98 -0.45,7.05 2.44,2.78 61.47,68 200.07,50.66 2.74,-0.34 4.68,-2.84 4.34,-5.58 -0.34,-2.75 -2.94,-4.62 -5.59,-4.34 -133,16.69 -190.74,-46.7 -191.31,-47.35 -0.99,-1.11 -2.37,-1.69 -3.75,-1.69"
         style="fill:#ffffff;fill-opacity:1;fill-rule:nonzero;stroke:none"
         id="path30" />
      <path
         d="M 2745.74,515.051 1452.07,1261.96 c -91.28,52.7 -165.28,194.07 -165.28,315.78 v 2770.19 c 0,121.7 74,177.64 165.28,124.94 l 1293.67,-746.91 c 91.28,-52.69 165.27,-194.08 165.27,-315.78 V 639.992 c 0,-121.703 -73.99,-177.64 -165.27,-124.941"
         style="fill:#33535f;fill-opacity:1;fill-rule:nonzero;stroke:none"
         id="path32" />
      <path
         d="m 2894.7,3812.8 -1293.67,746.91 c -39.03,22.52 -74.87,25.14 -103.14,11.3 v 0.01 l -0.03,-0.02 c -3.48,-1.7 -6.84,-3.66 -10.07,-5.86 l -144.94,-84.25 c 29.13,17.41 67.33,16.16 109.22,-8.02 l 1293.67,-746.91 c 91.28,-52.69 165.27,-194.08 165.27,-315.78 V 639.992 c 0,-64.344 -20.69,-110.281 -53.68,-131.523 l 143.04,83.32 -0.02,0.02 c 36.43,19.39 59.63,66.89 59.63,135.023 V 3497.02 c 0,121.7 -74,263.08 -165.28,315.78"
         style="fill:#273e47;fill-opacity:1;fill-rule:nonzero;stroke:none"
         id="path34" />
      <path
         d="M 2911.01,3410.18 V 639.992 c 0,-64.344 -20.69,-110.281 -53.68,-131.523 l 143.04,83.32 -0.02,0.02 c 36.43,19.39 59.63,66.89 59.63,135.023 v 2770.188 0.22 l -148.98,-86.5 0.01,-0.56"
         style="fill:#17282f;fill-opacity:1;fill-rule:nonzero;stroke:none"
         id="path36" />
      <path
         d="m 3059.98,3281.97 -148.97,-86.01 v -67.17 l 148.97,86.01 v 67.17"
         style="fill:#273e47;fill-opacity:1;fill-rule:nonzero;stroke:none"
         id="path38" />
      <path
         d="m 2994.71,2835.03 v 0 c -13.33,-7.69 -24.13,0.47 -24.13,18.24 v 144.47 c 0,17.77 10.8,38.41 24.13,46.1 13.32,7.7 24.12,-0.47 24.12,-18.24 v -144.47 c 0,-17.77 -10.8,-38.41 -24.12,-46.1"
         style="fill:#273e47;fill-opacity:1;fill-rule:nonzero;stroke:none"
         id="path40" />
      <path
         d="m 2970.58,2853.27 v 144.47 c 0,17.77 10.8,38.41 24.13,46.1 5.8,3.36 11.06,3.54 15.22,1.39 l 0.04,0.17 -18.02,9.35 -0.03,-0.15 c -4.23,2.39 -9.64,2.29 -15.65,-1.17 -13.32,-7.7 -24.12,-28.34 -24.12,-46.11 v -144.47 c 0,-9.59 3.22,-16.25 8.21,-19.26 l -0.04,-0.15 18.92,-9.86 0.04,0.17 c -5.27,2.86 -8.7,9.62 -8.7,19.52"
         style="fill:#33535f;fill-opacity:1;fill-rule:nonzero;stroke:none"
         id="path42" />
      <path
         d="m 2994.71,2485.29 v 0 c -13.33,-7.69 -24.13,0.48 -24.13,18.24 V 2648 c 0,17.77 10.8,38.41 24.13,46.11 13.32,7.69 24.12,-0.48 24.12,-18.25 v -144.47 c 0,-17.77 -10.8,-38.41 -24.12,-46.1"
         style="fill:#273e47;fill-opacity:1;fill-rule:nonzero;stroke:none"
         id="path44" />
      <path
         d="M 2970.58,2503.53 V 2648 c 0,17.77 10.8,38.41 24.13,46.11 5.8,3.35 11.06,3.54 15.22,1.38 l 0.04,0.17 -18.02,9.35 -0.03,-0.15 c -4.23,2.39 -9.64,2.29 -15.65,-1.17 -13.32,-7.7 -24.12,-28.34 -24.12,-46.1 v -144.48 c 0,-9.59 3.22,-16.25 8.21,-19.26 l -0.04,-0.14 18.92,-9.87 0.04,0.17 c -5.27,2.85 -8.7,9.62 -8.7,19.52"
         style="fill:#33535f;fill-opacity:1;fill-rule:nonzero;stroke:none"
         id="path46" />
      <path
         d="m 2700.76,3648.06 -1271.42,734.2 c -23.38,13.49 -52.6,-3.38 -52.6,-30.37 V 1577.74 c 0,-92.63 65.65,-206.33 145.87,-252.64 L 2763.13,608.879 c 25.74,-14.867 57.92,3.723 57.92,33.441 v 2797.39 c 0,76.39 -54.13,170.15 -120.29,208.35"
         style="fill:#ad58b2;fill-opacity:1;fill-rule:nonzero;stroke:none"
         id="path48" />
      <path
         d="m 2782.37,603.648 c -6.42,0 -13.02,1.633 -19.24,5.231 L 1522.61,1325.1 c -80.22,46.31 -145.87,160.01 -145.87,252.64 v 374.59 l 4.7,-7.91 c 28.35,-47.69 77.65,-72.29 127.22,-72.29 29.28,0 58.65,8.58 83.86,26.06 v -115.34 0 c 0,-67.12 25.02,-130.57 68.45,-179.11 v 0 0 c 18.68,-20.99 40.83,-39.19 65.87,-53.63 l 118.54,-68.37 v 0 l 669.22,-386.42 c 12.93,-7.48 26.63,-10.89 39.99,-10.89 41.87,0 80.29,33.52 80.29,80.32 v 1242.45 0 c 0,96.01 -51.23,184.79 -134.43,232.74 l -60.07,34.69 c -19.06,48.16 -63.95,83.26 -117.59,88.22 7.97,21.41 14.16,45.85 17.91,73.72 6.36,47.47 5.3,91.29 -2.88,130.76 -4.44,21.96 -11.08,42.47 -19.85,61.54 -32.67,70.99 -94.35,121.36 -181.33,143.9 -28.05,20.97 -62.23,32.03 -97.32,32.55 -2.89,0.04 -5.79,0.06 -8.71,0.06 -40.15,0 -76.49,-3.69 -109.26,-10.44 3.19,0.12 6.38,0.18 9.57,0.18 3.39,0 6.78,-0.07 10.17,-0.18 h -19.74 v -18.55 0 c -82.25,-16.67 -140.79,-53.37 -179.48,-98.36 l -29.09,16.8 c -12.94,7.44 -26.64,10.84 -39.99,10.84 -41.9,0 -80.27,-33.46 -80.27,-80.27 v -781.51 l -67.89,-90.39 -139.6,247.07 v 0 c 0,0 -0.61,0.02 -1.76,0.02 -1.4,0 -3.62,-0.04 -6.53,-0.17 v 715.25 c 5.89,2.94 11.65,6.1 17.28,9.47 l 125.15,-54.35 -57.78,112.64 c 36.1,44.25 57.78,100.75 57.78,162.32 v 0 0 c 0,100.77 -57.99,187.99 -142.43,230.11 v 776.03 c 0,20.47 16.8,35.11 35.12,35.11 5.84,0 11.83,-1.48 17.48,-4.74 l 1271.42,-734.2 c 66.16,-38.2 120.29,-131.96 120.29,-208.35 V 642.32 c 0,-22.539 -18.5,-38.679 -38.68,-38.672"
         style="fill:#fae9f5;fill-opacity:1;fill-rule:nonzero;stroke:none"
         id="path50" />
      <path
         d="m 1809.52,4190.59 19.68,-82.96 421.42,-242.98 72.75,38.79 -513.85,287.15"
         style="fill:#33535f;fill-opacity:1;fill-rule:nonzero;stroke:none"
         id="path52" />
      <path
         d="m 1933.35,4110.43 c 0,-13.75 -9.65,-19.33 -21.57,-12.45 -11.9,6.87 -21.56,23.6 -21.56,37.36 0,13.75 9.66,19.32 21.56,12.45 11.92,-6.88 21.57,-23.61 21.57,-37.36"
         style="fill:#17282f;fill-opacity:1;fill-rule:nonzero;stroke:none"
         id="path54" />
      <path
         d="m 2217.28,3934.95 c -2.24,0 -4.49,0.56 -6.57,1.72 l -215.25,120.28 c -6.5,3.63 -8.83,11.85 -5.19,18.36 3.63,6.51 11.86,8.83 18.36,5.19 l 215.23,-120.27 c 6.52,-3.64 8.84,-11.85 5.21,-18.36 -2.47,-4.42 -7.07,-6.92 -11.79,-6.92"
         style="fill:#17282f;fill-opacity:1;fill-rule:nonzero;stroke:none"
         id="path56" />
      <path
         d="m 1643.26,3804.86 c -13.1,7.56 -22.59,0.99 -22.59,-15.74 0,-16.91 9.49,-34.63 22.59,-42.19 7.78,-4.49 17.6,-4.59 24.76,0.09 l 20.89,-37.78 c -12.16,-8.28 -30.7,-7.46 -47.53,2.25 -33.49,19.34 -57.8,60.9 -57.8,98.5 0,37.06 24.93,49.65 59.21,29.86 16.67,-9.63 34.89,-29.14 46.12,-49.65 l -20.89,-16.55 c -6.54,14.03 -16.35,26.35 -24.76,31.21"
         style="fill:#ad58b2;fill-opacity:1;fill-rule:nonzero;stroke:none"
         id="path58" />
      <path
         d="m 1726.3,3727.23 c 0,-17.27 10.9,-36.34 23.37,-43.54 12.47,-7.2 22.44,-0.17 22.44,17.09 0,17.27 -9.97,35.44 -22.44,42.64 -12.61,7.28 -23.37,1.08 -23.37,-16.19 z m 82.88,-47.68 c 0,-37.41 -25.23,-50.37 -59.98,-30.31 -34.73,20.06 -59.98,61.98 -59.98,99.58 0,37.42 25.25,49.64 59.98,29.59 34.75,-20.06 59.98,-61.61 59.98,-98.86"
         style="fill:#ad58b2;fill-opacity:1;fill-rule:nonzero;stroke:none"
         id="path60" />
      <path
         d="m 1849.55,3719.22 43.15,-89.68 v 64.76 l 32.72,-18.88 v -126.11 l -30.22,17.44 -43.01,89.23 v -64.4 l -32.87,18.98 v 126.11 l 30.23,-17.45"
         style="fill:#ad58b2;fill-opacity:1;fill-rule:nonzero;stroke:none"
         id="path62" />
      <path
         d="m 2032.3,3613.71 v -32.92 l -31.16,17.98 v -93.18 l -36.14,20.86 v 93.19 l -31.01,17.9 v 32.93 l 98.31,-56.76"
         style="fill:#ad58b2;fill-opacity:1;fill-rule:nonzero;stroke:none"
         id="path64" />
      <path
         d="m 2093.84,3499.74 -11.21,43.35 -11.53,-30.22 z m 8.88,-34.99 -40.98,23.66 -5.6,-14.58 -37.07,21.41 46.11,99.49 37.08,-21.41 44.4,-151.75 -38.48,22.22 -5.46,20.96"
         style="fill:#ad58b2;fill-opacity:1;fill-rule:nonzero;stroke:none"
         id="path66" />
      <path
         d="m 2204.01,3481.11 c -13.1,7.56 -22.59,0.99 -22.59,-15.74 0,-16.91 9.49,-34.63 22.59,-42.19 7.78,-4.49 17.61,-4.59 24.76,0.09 l 20.89,-37.78 c -12.16,-8.27 -30.7,-7.46 -47.53,2.25 -33.49,19.34 -57.8,60.9 -57.8,98.5 0,37.06 24.93,49.65 59.21,29.86 16.67,-9.63 34.89,-29.14 46.12,-49.66 l -20.89,-16.54 c -6.54,14.03 -16.34,26.35 -24.76,31.21"
         style="fill:#ad58b2;fill-opacity:1;fill-rule:nonzero;stroke:none"
         id="path68" />
      <path
         d="m 2348.28,3431.28 v -32.93 l -31.16,17.99 v -93.19 l -36.14,20.87 v 93.19 l -31,17.9 v 32.93 l 98.3,-56.76"
         style="fill:#ad58b2;fill-opacity:1;fill-rule:nonzero;stroke:none"
         id="path70" />
      <path
         d="m 2455.01,3276.46 c 8.88,-5.12 15.74,-1.17 15.74,11.43 v 72.68 l 36.15,-20.87 v -72.68 c 0,-33.47 -20.41,-43.45 -52.04,-25.18 -31.79,18.34 -52.81,52.25 -52.81,85.72 v 72.67 l 36.14,-20.87 v -72.67 c 0,-12.41 7.79,-25.01 16.82,-30.23"
         style="fill:#ad58b2;fill-opacity:1;fill-rule:nonzero;stroke:none"
         id="path72" />
      <path
         d="m 2565.17,3276.01 c -4.05,2.34 -6.7,2.43 -6.7,-1.35 0,-15.83 56.55,-38.59 56.55,-84.28 0,-28.07 -21.34,-28.15 -45.96,-13.94 -19.01,10.97 -40.19,30.58 -54.69,51.72 l 13.41,23.57 c 11.21,-17.27 30.53,-37.24 41.59,-43.63 5.3,-3.06 8.73,-3.06 8.73,1.44 0,16.37 -56.55,38.23 -56.55,82.48 0,25.19 18.38,30.41 46.73,14.04 17.29,-9.99 35.21,-26.27 47.53,-42.37 l -13.09,-24.11 c -11.06,13.41 -28.05,30.95 -37.55,36.43"
         style="fill:#ad58b2;fill-opacity:1;fill-rule:nonzero;stroke:none"
         id="path74" />
      <path
         d="m 1461.39,3183.43 c 36.1,44.25 57.78,100.75 57.78,162.32 0,141.93 -115.06,257 -257.01,257 -141.94,0 -257,-115.07 -257,-257 0,-141.94 115.06,-257.01 257,-257.01 48.22,0 93.3,13.31 131.86,36.4 l 125.15,-54.35 -57.78,112.64"
         style="fill:#ad58b2;fill-opacity:1;fill-rule:nonzero;stroke:none"
         id="path76" />
      <path
         d="m 1519.17,3070.79 -125.15,54.35 c -5.63,-3.37 -11.39,-6.53 -17.28,-9.47 v 0 c -27.53,-13.75 -57.88,-22.7 -89.95,-25.76 -8.1,-0.77 -16.32,-1.17 -24.63,-1.17 -141.94,0 -257,115.07 -257,257.01 0,141.93 115.06,257 257,257 141.95,0 257.01,-115.07 257.01,-257 0,-61.57 -21.68,-118.07 -57.78,-162.32 v 0 0 l 57.78,-112.64"
         style="fill:#743583;fill-opacity:1;fill-rule:nonzero;stroke:none"
         id="path78" />
      <path
         d="m 1167.03,3359.41 c 0,3.96 -2.82,6.11 -7.94,6.11 -8.76,0 -20.33,-5.78 -31.57,-14.87 l -14.2,27.6 c 16.52,11.4 33.54,18.17 51.72,18.17 23.96,0 42.14,-12.55 42.14,-31.4 0,-13.38 -9.75,-26.27 -22.81,-39.16 l -17.84,-17.68 h 42.3 v -29.42 h -90.89 l -0.16,24.13 40.49,41.81 c 4.78,4.96 8.76,10.74 8.76,14.71"
         style="fill:#ffffff;fill-opacity:1;fill-rule:nonzero;stroke:none"
         id="path80" />
      <path
         d="m 1282.82,3394.77 -27.6,-66.27 h 11.24 v 22.31 h 34.86 v -22.31 h 13.23 v -27.26 h -13.23 v -22.48 h -34.86 v 22.48 h -49.41 v 24.78 l 29.74,68.75 h 36.03"
         style="fill:#ffffff;fill-opacity:1;fill-rule:nonzero;stroke:none"
         id="path82" />
      <path
         d="m 1421.91,3336.43 v -57.67 h -37.18 v 46.94 c 0,7.6 -4.3,12.39 -10.74,12.39 -7.27,0 -11.9,-5.79 -11.9,-14.54 v -44.79 h -37.18 v 122.62 h 37.18 v -45.11 c 6.12,9.25 15.53,14.54 27.44,14.54 19,0 32.38,-13.55 32.38,-34.38"
         style="fill:#ffffff;fill-opacity:1;fill-rule:nonzero;stroke:none"
         id="path84" />
      <path
         d="M 2634.88,2407.2 V 1164.75 c 0,-61.73 -66.83,-100.34 -120.28,-69.43 l -669.22,386.42 -118.54,68.37 c -25.04,14.44 -47.19,32.64 -65.87,53.63 -43.43,48.54 -68.45,111.99 -68.45,179.11 V 3025.4 c 0,61.72 66.72,100.24 120.26,69.43 l 787.67,-454.89 c 83.2,-47.95 134.43,-136.73 134.43,-232.74"
         style="fill:#ad58b2;fill-opacity:1;fill-rule:nonzero;stroke:none"
         id="path86" />
      <path
         d="m 2554.59,1084.43 c -13.36,0 -27.06,3.41 -39.99,10.89 l -669.22,386.42 v 0 l 438.79,-251.82 c 57.84,149.64 27.64,288.47 -1.74,369.27 8.04,7.73 12.24,12.45 12.24,12.45 v 0 0 c 0,0 -15.49,65.86 -40.24,116.42 -10.09,20.57 -15.36,36.06 -15.37,54 -0.02,26.22 11.18,57.67 34.91,117.88 25.14,63.74 51.9,234.85 68.37,353.39 0.9,6.53 1.34,13.04 1.34,19.48 -0.01,62.25 -41.18,118.3 -102.44,135.93 l -49.69,14.35 -74.96,9.45 4.04,3.15 v 173.45 l 22.46,-12.89 c 7.57,-5.14 16.62,-7.82 26.73,-7.82 1.19,0 2.39,0.03 3.61,0.11 15.35,-60.96 70.54,-106.08 136.25,-106.08 77.6,0 140.51,62.9 140.51,140.49 0,18.25 -3.48,35.69 -9.81,51.68 l 60.07,-34.69 c 83.2,-47.95 134.43,-136.73 134.43,-232.74 V 1164.75 c 0,-46.8 -38.42,-80.32 -80.29,-80.32 m -893.62,519.31 v 0 c -43.43,48.54 -68.45,111.99 -68.45,179.11 v 115.34 c 11.16,7.74 21.51,17.23 30.67,28.5 l 45.7,56.2 23.28,-68.31 c 3.33,-9.7 5.01,-19.93 5.01,-30.18 0,-4.01 -0.25,-8.02 -0.77,-12 l -35.44,-268.66 m -68.45,640.15 v 781.51 c 0,46.81 38.37,80.27 80.27,80.27 13.35,0 27.05,-3.4 39.99,-10.84 l 29.09,-16.8 c -33.96,-39.5 -52.61,-85.37 -58.55,-129.67 l -0.1,-0.67 c -3.85,-29.08 -3.08,-53.92 0.1,-74.62 6.57,-43.47 23.94,-69.28 33.19,-80.35 -3.78,-144.48 22.15,-248.72 104.14,-260.52 7.87,-1.14 16.58,-1.73 25.94,-1.73 23.66,0 51.55,3.77 80.98,12.04 v -86.15 l -70.64,8.91 -5.88,-5.75 c -3.5,0.21 -6.99,0.32 -10.46,0.32 -53.64,0 -104.76,-25.13 -137.49,-68.71 l -110.58,-147.24"
         style="fill:#de9fd4;fill-opacity:1;fill-rule:nonzero;stroke:none"
         id="path88" />
      <path
         d="m 2249.43,1672.07 c 0,0 125.31,-207.81 34.74,-442.15 l -438.79,251.82 404.05,190.33"
         style="fill:#17282f;fill-opacity:1;fill-rule:nonzero;stroke:none"
         id="path90" />
      <path
         d="m 2450.19,2622.95 c 0,-77.59 -62.91,-140.49 -140.51,-140.49 -77.59,0 -140.5,62.9 -140.5,140.49 0,77.6 62.91,140.51 140.5,140.51 77.6,0 140.51,-62.91 140.51,-140.51"
         style="fill:#17282f;fill-opacity:1;fill-rule:nonzero;stroke:none"
         id="path92" />
      <path
         d="m 2310.36,3016.98 c 0,0 43.13,70.33 56.37,64.9 13.25,-5.42 -8.62,-71.84 -8.62,-71.84 0,0 65.24,-13.56 53.05,-29.82 -12.21,-16.27 -91.81,-12.53 -91.81,-12.53 l -8.99,49.29"
         style="fill:#17282f;fill-opacity:1;fill-rule:nonzero;stroke:none"
         id="path94" />
      <path
         d="m 2340.7,2836.57 c -30.33,-225.42 -220.02,-225.42 -220.02,-225.42 l -398.17,175.16 c 0,0 -30.04,26.28 -39.19,86.76 -3.18,20.7 -3.95,45.54 -0.1,74.62 l 0.1,0.67 c 12.71,94.76 83.58,196.73 238.03,228.03 30.81,6.35 64.99,9.82 102.75,9.82 17.23,0 33.8,-0.77 49.68,-2.5 120.46,-11.75 204.14,-67.8 244.19,-154.84 8.77,-19.07 15.41,-39.58 19.85,-61.54 8.18,-39.47 9.24,-83.29 2.88,-130.76"
         style="fill:#17282f;fill-opacity:1;fill-rule:nonzero;stroke:none"
         id="path96" />
      <path
         d="m 1385.03,2400.57 c 0,0 -141.33,4.83 -195.76,-132.87 0,0 60.13,-40.5 138.76,-0.18 78.62,40.32 57,133.05 57,133.05"
         style="fill:#ad58b2;fill-opacity:1;fill-rule:nonzero;stroke:none"
         id="path98" />
      <path
         d="m 1235.88,2262.86 c -14.17,0 -29.65,1.51 -46.61,4.84 v 0 c 50.86,128.67 177.6,132.89 194,132.89 1.15,0 1.76,-0.02 1.76,-0.02 v 0 c 0,0 -13.83,-137.7 -149.15,-137.71"
         style="fill:#5d2b68;fill-opacity:1;fill-rule:nonzero;stroke:none"
         id="path100" />
      <path
         d="m 1380.96,2334.27 c 0,0 -39.86,173.75 -61.01,175.9 -22.23,2.27 -25.23,-53.04 -23.51,-84.11 l -50.35,107.54 c -6.65,14.2 -23.85,19.67 -37.59,12.13 -50.08,-27.51 -137.71,-111.1 47.26,-317.84 l 125.2,106.38"
         style="fill:#9c4852;fill-opacity:1;fill-rule:nonzero;stroke:none"
         id="path102" />
      <path
         d="m 1893,2454.4 -29.81,3.94 c -61.58,8.16 -122.78,-17.54 -160.09,-67.21 l -178.47,-237.63 -139.6,247.07 c 0,0 -16.85,-168.04 -195.76,-132.87 l 192.17,-323.28 c 52.51,-88.34 176.91,-97.46 241.75,-17.73 l 164.38,202.15 105.43,325.56"
         style="fill:#ad58b2;fill-opacity:1;fill-rule:nonzero;stroke:none"
         id="path104" />
      <path
         d="m 2273.97,1899.94 c -39.96,-101.4 -44.38,-121.23 -19.54,-171.88 24.75,-50.56 40.24,-116.42 40.24,-116.42 0,0 -185.36,-207.8 -449.29,-129.9 l -118.54,68.37 c -25.04,14.44 -47.19,32.64 -65.87,53.63 l 35.44,268.66 c 1.83,14.15 0.39,28.69 -4.24,42.18 l -37.84,111.02 c -37.74,110.83 -8.56,233.41 75.21,315.16 l 127.39,124.51 334.62,-42.18 49.69,-14.35 c 67.59,-19.45 110.73,-85.69 101.1,-155.41 -16.47,-118.54 -43.23,-289.65 -68.37,-353.39"
         style="fill:#ad58b2;fill-opacity:1;fill-rule:nonzero;stroke:none"
         id="path106" />
      <path
         d="m 1964.07,1464.26 c -37.33,0 -77.02,5.18 -118.69,17.48 l -118.54,68.37 c -25.04,14.44 -47.19,32.64 -65.87,53.63 l 35.44,268.66 c 0.52,3.98 0.77,7.99 0.77,12 0,10.25 -1.68,20.48 -5.01,30.18 l -23.28,68.31 -14.56,42.71 c -10.95,32.14 -16.26,65.28 -16.25,98.12 0.03,80.38 31.98,159 91.46,217.04 l 127.39,124.51 70.64,-8.91 v -171.08 l 189.02,147.26 74.96,-9.45 49.69,-14.35 c 61.26,-17.63 102.43,-73.68 102.44,-135.93 0,-6.44 -0.44,-12.95 -1.34,-19.48 -16.47,-118.54 -43.23,-289.65 -68.37,-353.39 -23.73,-60.21 -34.93,-91.66 -34.91,-117.88 0.01,-17.94 5.28,-33.43 15.37,-54 24.75,-50.56 40.24,-116.42 40.24,-116.42 0,0 -28.17,-31.57 -78.15,-65.48 -20.32,11.5 -39.92,14.67 -55.33,14.67 -18.84,0 -31.41,-4.72 -31.41,-4.72 0,0 -6.24,-17.19 -6.24,-41.99 0,-5.5 0.31,-11.36 1.06,-17.49 -46.12,-18.85 -100.23,-32.37 -160.53,-32.37"
         style="fill:#5d2b68;fill-opacity:1;fill-rule:nonzero;stroke:none"
         id="path108" />
      <path
         d="m 2072.24,2202.52 -67,57.08 c -14.48,12.33 -34.39,16.11 -52.36,9.93 l -81.02,-27.85 -10.89,45.36 c -7.15,29.8 -37.72,47.61 -67.18,39.13 l -35.11,-10.12 59.47,113.81 c 19.36,37.06 49.23,67.59 85.85,87.78 l 23.27,12.83 192.51,-9.9 c 0,0 71.77,-29.73 71.77,-97.5 l -119.31,-220.55"
         style="fill:#ad58b2;fill-opacity:1;fill-rule:nonzero;stroke:none"
         id="path110" />
      <path
         d="m 2120.63,2435.69 -193.06,-150.41 v 478.85 h 193.06 v -328.44"
         style="fill:#9c4852;fill-opacity:1;fill-rule:nonzero;stroke:none"
         id="path112" />
      <path
         d="m 1930.57,2475.1 -58.71,-233.42 247.92,194.01 z"
         style="fill:#9c4852;fill-opacity:1;fill-rule:nonzero;stroke:none"
         id="path114" />
      <path
         d="m 1927.57,2509.81 c 74.27,28.68 151.89,86.21 193.06,183.61 v 70.71 h -193.06 v -254.32"
         style="fill:#742932;fill-opacity:1;fill-rule:nonzero;stroke:none"
         id="path116" />
      <path
         d="m 1969.24,3119.01 c -73.22,0 -228.88,-40.8 -246.84,-232.36 -17.97,-191.56 -0.63,-340.22 98.25,-354.45 98.88,-14.24 328.4,57.32 359.13,305.31 30.74,247.99 -139.11,281.5 -210.54,281.5"
         style="fill:#9c4852;fill-opacity:1;fill-rule:nonzero;stroke:none"
         id="path118" />
      <path
         d="M 1853.97,2805.57 V 2692.6 l -66.15,20.31 z"
         style="fill:#742932;fill-opacity:1;fill-rule:nonzero;stroke:none"
         id="path120" />
      <path
         d="m 1950.59,2786.03 c 0,-12.71 -10.3,-23.01 -23.02,-23.01 -12.71,0 -23.01,10.3 -23.01,23.01 0,12.71 10.3,23.02 23.01,23.02 12.72,0 23.02,-10.31 23.02,-23.02"
         style="fill:#17282f;fill-opacity:1;fill-rule:nonzero;stroke:none"
         id="path122" />
      <path
         d="m 1799.2,2802.08 c 0,-12.71 -10.31,-23.01 -23.01,-23.01 -12.72,0 -23.02,10.3 -23.02,23.01 0,12.71 10.3,23.02 23.02,23.02 12.7,0 23.01,-10.31 23.01,-23.02"
         style="fill:#17282f;fill-opacity:1;fill-rule:nonzero;stroke:none"
         id="path124" />
      <path
         d="m 1748.14,2850.01 45.01,26.73 c 0,0 -17.29,17.95 -34.47,7.17 -17.19,-10.79 -10.54,-33.9 -10.54,-33.9"
         style="fill:#17282f;fill-opacity:1;fill-rule:nonzero;stroke:none"
         id="path126" />
      <path
         d="m 1822.86,2646.81 c 0,0 36.54,-3.33 61.99,16.6 0,0 4.23,-32.65 -23.13,-38.89 -27.34,-6.25 -38.86,22.29 -38.86,22.29"
         style="fill:#742932;fill-opacity:1;fill-rule:nonzero;stroke:none"
         id="path128" />
      <path
         d="m 1783.61,3053.87 c 0,0 27.53,-264.54 387.19,-272.8 0,0 108.66,262.86 -106.11,348.26 -214.75,85.41 -281.08,-75.46 -281.08,-75.46"
         style="fill:#17282f;fill-opacity:1;fill-rule:nonzero;stroke:none"
         id="path130" />
      <path
         d="m 2276.66,2820.67 v 0.01 l -0.18,0.11 -0.16,0.1 -44.22,25.53 -0.02,-0.03 c -16.73,9.88 -39.96,8.6 -65.65,-6.23 -51.02,-29.46 -92.38,-101.09 -92.38,-160 0,-29.5 10.37,-50.2 27.13,-59.84 v -0.01 l 43.41,-24.93 2.52,-1.45 1.48,-0.84 0.07,0.11 c 16.44,-7.96 38.32,-6.07 62.42,7.84 51.01,29.46 92.37,101.09 92.37,160 0,29.3 -10.23,49.91 -26.79,59.63"
         style="fill:#ad58b2;fill-opacity:1;fill-rule:nonzero;stroke:none"
         id="path132" />
      <path
         d="m 2303.45,2761.04 c 0,-58.91 -41.36,-130.54 -92.37,-160 -51.02,-29.45 -92.37,-5.58 -92.37,53.33 0,58.91 41.35,130.55 92.37,160 51.01,29.46 92.37,5.59 92.37,-53.33"
         style="fill:#ad58b2;fill-opacity:1;fill-rule:nonzero;stroke:none"
         id="path134" />
      <path
         d="m 2169.82,2588.43 c -30.3,0 -51.11,24.16 -51.11,65.94 0,58.91 41.35,130.55 92.37,160 14.83,8.57 28.84,12.62 41.26,12.62 30.3,0 51.11,-24.16 51.11,-65.95 0,-1.25 -0.02,-2.52 -0.05,-3.79 -2.72,3.51 -5.97,6.32 -9.65,8.35 l -29.8,17.21 -0.02,-0.02 c -4.85,2.86 -10.5,4.36 -16.73,4.36 -8.48,0 -18.06,-2.77 -28.19,-8.63 -34.91,-20.15 -63.21,-69.17 -63.21,-109.48 0,-20.18 7.1,-34.35 18.56,-40.94 l 28.69,-16.48 c 4.71,-3.19 10.26,-5 16.42,-5.3 -2.76,-1.88 -5.56,-3.64 -8.39,-5.28 -13.41,-7.74 -26.15,-11.8 -37.65,-12.5 -1.22,-0.08 -2.42,-0.11 -3.61,-0.11"
         style="fill:#5d2b68;fill-opacity:1;fill-rule:nonzero;stroke:none"
         id="path136" />
      <path
         d="m 2294.43,2765.19 0.01,0.01 -0.13,0.08 -0.12,0.06 -30.24,17.47 -0.02,-0.02 c -11.45,6.76 -27.34,5.89 -44.92,-4.27 -34.91,-20.15 -63.21,-69.17 -63.21,-109.48 0,-20.18 7.1,-34.35 18.56,-40.94 l 29.7,-17.06 1.74,-1 1,-0.57 0.05,0.08 c 11.25,-5.45 26.22,-4.16 42.71,5.36 34.91,20.16 63.21,69.17 63.21,109.48 0,20.05 -7.01,34.15 -18.34,40.8"
         style="fill:#ad58b2;fill-opacity:1;fill-rule:nonzero;stroke:none"
         id="path138" />
      <path
         d="m 2312.77,2724.39 c 0,-40.31 -28.3,-89.32 -63.21,-109.48 -34.91,-20.15 -63.21,-3.82 -63.21,36.5 0,40.3 28.3,89.32 63.21,109.47 34.91,20.16 63.21,3.82 63.21,-36.49"
         style="fill:#ad58b2;fill-opacity:1;fill-rule:nonzero;stroke:none"
         id="path140" />
      <path
         d="m 2221.33,2606.28 c -0.63,0 -1.25,0.01 -1.86,0.04 -6.16,0.3 -11.71,2.11 -16.42,5.3 -10.37,7.01 -16.7,20.72 -16.7,39.79 0,40.3 28.3,89.32 63.21,109.47 10.14,5.86 19.73,8.64 28.23,8.64 20.74,0 34.98,-16.53 34.98,-45.13 0,-40.31 -28.3,-89.32 -63.21,-109.48 -10.15,-5.86 -19.74,-8.63 -28.23,-8.63"
         style="fill:#893c9b;fill-opacity:1;fill-rule:nonzero;stroke:none"
         id="path142" />
      <path
         d="m 2139.36,3170.69 c -28.54,22.32 -63.81,34.09 -100.04,34.63 -2.89,0.04 -5.79,0.06 -8.71,0.06 -40.15,0 -76.49,-3.69 -109.26,-10.44 6.58,0.25 13.16,0.22 19.74,0 h -19.74 v -18.55 h 18.57 c 39.76,-1.41 79.31,-12.34 114.89,-32.84 76.36,-44.1 123.84,-126.33 123.84,-214.54 v -78.67 c 0,-13.1 11.21,-23.49 24.49,-22.12 l 2.25,0.47 19.73,6.13 -0.01,0.03 c -1.32,-0.4 -2.68,-0.71 -4.11,-0.86 12.29,1.27 21.15,12.54 21.15,24.9 v 72.99 c 0,132.05 -57.09,203.08 -102.79,238.81"
         style="fill:#ad58b2;fill-opacity:1;fill-rule:nonzero;stroke:none"
         id="path144" />
      <path
         d="m 2013.53,2537.7 c -8.11,0 -16.27,1.73 -23.95,5.28 l -62.52,28.91 c -3.73,1.73 -5.37,6.16 -3.64,9.89 1.74,3.74 6.17,5.32 9.89,3.63 l 62.53,-28.91 c 16.32,-7.56 35.68,-3.92 48.16,9.06 l 59.65,62.03 c 2.86,2.96 7.57,3.05 10.53,0.21 2.96,-2.85 3.06,-7.57 0.21,-10.54 l -59.65,-62.03 c -11.01,-11.45 -26,-17.53 -41.21,-17.53"
         style="fill:#ad58b2;fill-opacity:1;fill-rule:nonzero;stroke:none"
         id="path146" />
      <path
         d="m 2013.53,2537.7 c -8.11,0 -16.27,1.73 -23.95,5.28 l -57.78,26.72 c 4.13,3.08 7.41,7.24 9.44,12.05 l 54.6,-25.25 c 5.67,-2.62 11.71,-3.9 17.7,-3.9 11.25,0 22.32,4.49 30.46,12.96 l 59.65,62.03 c 1.47,1.52 3.42,2.28 5.37,2.28 1.86,0 3.72,-0.69 5.16,-2.07 1.53,-1.47 2.3,-3.44 2.29,-5.41 -0.01,-1.84 -0.7,-3.69 -2.08,-5.13 l -2.81,-2.92 -56.84,-59.11 c -11.01,-11.45 -26,-17.53 -41.21,-17.53"
         style="fill:#5d2b68;fill-opacity:1;fill-rule:nonzero;stroke:none"
         id="path148" />
      <path
         d="m 1943.52,2593.09 c 0,-16.13 -13.08,-29.2 -29.2,-29.2 -16.13,0 -29.2,13.07 -29.2,29.2 0,16.12 13.07,29.19 29.2,29.19 16.12,0 29.2,-13.07 29.2,-29.19"
         style="fill:#ad58b2;fill-opacity:1;fill-rule:nonzero;stroke:none"
         id="path150" />
      <path
         d="m 1914.32,2563.89 c -16.13,0 -29.2,13.07 -29.2,29.2 0,16.12 13.07,29.19 29.2,29.19 16.12,0 29.2,-13.07 29.2,-29.19 0,-4.03 -0.81,-7.86 -2.28,-11.34 -2.03,-4.81 -5.31,-8.97 -9.44,-12.05 -4.87,-3.65 -10.92,-5.81 -17.48,-5.81"
         style="fill:#5d2b68;fill-opacity:1;fill-rule:nonzero;stroke:none"
         id="path152" />
      <path
         d="m 2242.15,2931.88 v -72.99 c 0,-12.36 -8.86,-23.63 -21.15,-24.9 -14.12,-1.45 -26.05,9.59 -26.05,23.53 v 74.36 c 0,93.79 -50.48,181.24 -131.68,228.14 -43.72,25.18 -93.08,36.86 -141.92,34.92 32.77,6.75 69.11,10.44 109.26,10.44 2.92,0 5.82,-0.02 8.71,-0.06 36.23,-0.54 71.5,-12.31 100.04,-34.63 45.7,-35.73 102.79,-106.76 102.79,-238.81"
         style="fill:#ad58b2;fill-opacity:1;fill-rule:nonzero;stroke:none"
         id="path154" />
      <path
         d="m 2218.5,2833.86 c -13,0 -23.55,10.55 -23.55,23.66 v 74.36 0 c 0,93.79 -50.48,181.24 -131.68,228.14 -40.6,23.39 -86.07,35.12 -131.46,35.12 -3.49,0 -6.97,-0.07 -10.46,-0.2 32.77,6.75 69.11,10.44 109.26,10.44 2.92,0 5.82,-0.02 8.71,-0.06 36.23,-0.54 71.5,-12.31 100.04,-34.63 45.7,-35.73 102.79,-106.76 102.79,-238.81 v -72.99 c 0,-10.99 -7,-21.11 -17.19,-24.12 -1.23,-0.36 -2.5,-0.62 -3.82,-0.76 -0.05,-0.01 -0.09,-0.01 -0.14,-0.02 v 0 c -0.84,-0.08 -1.67,-0.13 -2.5,-0.13"
         style="fill:#5d2b68;fill-opacity:1;fill-rule:nonzero;stroke:none"
         id="path156" />
      <path
         d="m 2129.78,1556.11 c 0,0 -48.43,-133.48 124.61,-193.12 0,0 56.51,82.92 0,150.81 -56.51,67.89 -124.61,42.31 -124.61,42.31"
         style="fill:#ad58b2;fill-opacity:1;fill-rule:nonzero;stroke:none"
         id="path158" />
      <path
         d="m 2254.39,1362.99 c -97.19,33.5 -124.51,90.28 -129.79,133.64 -0.75,6.13 -1.06,11.99 -1.06,17.49 0,24.8 6.24,41.99 6.24,41.99 0,0 12.57,4.72 31.41,4.72 24.98,0 60.98,-8.32 93.2,-47.03 18.82,-22.61 25.1,-46.88 25.12,-69.21 0.02,-44.71 -25.12,-81.6 -25.12,-81.6"
         style="fill:#311634;fill-opacity:1;fill-rule:nonzero;stroke:none"
         id="path160" />
      <path
         d="m 2190.19,1550.07 c 0,0 -168.94,-61.97 -168.1,-85.9 0.86,-23.92 71.85,-7.65 71.85,-7.65 l -25.95,-16.97 c -27.24,-17.81 -48.36,-43.59 -60.46,-73.81 -5.52,-13.8 0.25,-29.54 13.38,-36.5 l 64.2,-34.01 c 15.29,-8.09 34.23,-1.96 41.87,13.55 7.11,14.43 19.87,25.12 35.13,30.21 34.9,11.64 99.71,45.07 126.08,136.4 l -98,74.68"
         style="fill:#9c4852;fill-opacity:1;fill-rule:nonzero;stroke:none"
         id="path162" />
      <path
         d="m 2241.21,2408.75 c 0,0 -89.92,-50.15 -42.22,-201.83 47.68,-151.68 137.55,-387.32 137.55,-387.32 l -206.76,-263.49 c 0,0 69.2,-4.64 111.12,-66.35 41.93,-61.7 13.49,-126.77 13.49,-126.77 l 256.59,329.62 c 48.23,61.95 61.93,144.07 36.42,218.32 l -110.37,321.24 c -27.33,79.52 -90.25,141.71 -170.1,168.08 l -25.72,8.5"
         style="fill:#ad58b2;fill-opacity:1;fill-rule:nonzero;stroke:none"
         id="path164" />
      <path
         d="m 722.016,3305.44 -397.684,229.61 c -12.004,6.93 -23.019,7.73 -31.711,3.47 h -0.008 c -1.066,-0.52 -2.101,-1.12 -3.097,-1.8 l -86.485,-50.69 0.528,0.26 c -10.86,-6.15 -17.762,-20.56 -17.762,-41.14 v -442.2 c 0,-37.41 22.742,-80.87 50.808,-97.07 l 397.688,-229.61 c 13.574,-7.84 25.879,-7.8 34.988,-1.49 l -0.683,-0.53 85.898,50.4 v 0.01 c 11.203,5.96 18.332,20.56 18.332,41.51 v 442.2 c 0,37.41 -22.746,80.87 -50.812,97.07"
         style="fill:#ad58b2;fill-opacity:1;fill-rule:nonzero;stroke:none"
         id="path166" />
      <path
         d="m 758.598,3263.52 c -9.239,18.14 -22.196,33.62 -36.582,41.92 l -397.684,229.61 c -12.004,6.93 -23.019,7.73 -31.711,3.47 h -0.008 c -1.066,-0.52 -2.101,-1.12 -3.097,-1.8 l -86.485,-50.69 c 8.957,5.35 20.703,4.97 33.574,-2.47 l 397.688,-229.61 c 14.883,-8.59 28.23,-24.87 37.52,-43.83 l 86.785,53.4"
         style="fill:#ad58b2;fill-opacity:1;fill-rule:nonzero;stroke:none"
         id="path168" />
      <path
         d="m 685.102,2714.68 c 0,-19.78 -6.368,-33.9 -16.504,-40.43 l 85.898,50.4 v 0.01 c 11.203,5.96 18.332,20.56 18.332,41.51 v 442.2 c 0,18.24 -5.441,37.9 -14.23,55.15 l -86.785,-53.4 c 8.23,-16.79 13.289,-35.67 13.289,-53.24 v -442.2"
         style="fill:#ad58b2;fill-opacity:1;fill-rule:nonzero;stroke:none"
         id="path170" />
      <path
         d="m 671.813,3210.12 c -9.29,18.96 -22.637,35.24 -37.52,43.83 l -397.688,229.61 c -7.156,4.14 -13.964,6.09 -20.14,6.09 -4.777,0 -9.172,-1.17 -13.059,-3.4 l 86.11,50.47 c 0.996,0.68 2.031,1.28 3.097,1.8 h 0.008 c 3.508,1.72 7.395,2.61 11.567,2.61 6.175,0 12.984,-1.95 20.144,-6.08 l 397.684,-229.61 c 14.386,-8.3 27.343,-23.78 36.582,-41.92 l -86.785,-53.4"
         style="fill:#893c9b;fill-opacity:1;fill-rule:nonzero;stroke:none"
         id="path172" />
      <path
         d="m 203.031,3486.03 c 0.125,0.07 0.25,0.15 0.375,0.22 l -0.375,-0.22"
         style="fill:#893c9b;fill-opacity:1;fill-rule:nonzero;stroke:none"
         id="path174" />
      <path
         d="m 668.598,2674.25 c 10.136,6.53 16.504,20.65 16.504,40.43 v 442.2 0 c 0,17.57 -5.059,36.45 -13.289,53.24 l 86.785,53.4 c 8.789,-17.25 14.23,-36.91 14.23,-55.15 v -442.2 c 0,-20.95 -7.129,-35.55 -18.332,-41.51 v -0.01 l -85.898,-50.4"
         style="fill:#45214d;fill-opacity:1;fill-rule:nonzero;stroke:none"
         id="path176" />
      <path
         d="m 469.664,3078.25 c 0,27.82 -14.68,51.96 -34.621,63.48 -20.223,11.67 -34.344,3.52 -34.344,-23.66 0,-27.51 14.121,-52.29 34.344,-63.97 19.941,-11.51 34.621,-3.99 34.621,24.15 m 98.875,-48.13 c 0,-57.25 -22.715,-76.76 -56.777,-57.09 -18.836,10.88 -32.129,28.15 -37.938,49.73 -9.699,-12.31 -25.488,-13.11 -47.363,-0.48 -35.723,20.63 -63.984,69.56 -63.984,117.85 0,47.97 27.976,64.44 63.984,43.65 18.269,-10.55 32.684,-26.22 42.644,-45.73 v 18.87 l 37.668,-21.75 v -103.61 c 0,-15.35 5.829,-23.83 13.301,-28.15 12.742,-7.35 20.496,5.12 20.496,42.22 0,64.92 -41.55,133.68 -103.027,169.17 -61.766,35.66 -103.035,10.88 -103.035,-55.96 0,-68.12 40.437,-139.75 101.933,-175.25 17.43,-10.08 37.098,-17.27 54.551,-17.43 l 8.867,-34.54 c -16.894,-0.16 -41.554,8.63 -63.418,21.27 -80.058,46.21 -132.949,139.43 -132.949,223.86 0,83.47 53.446,114.97 134.051,68.43 77.824,-44.93 130.996,-134.79 130.996,-215.06"
         style="fill:#ad58b2;fill-opacity:1;fill-rule:nonzero;stroke:none"
         id="path178" />
      <path
         d="m 499.414,2931.61 c -16.883,0 -41.301,8.75 -62.973,21.28 -80.058,46.21 -132.949,139.43 -132.949,223.86 0,57.2 25.106,89.99 66.84,89.99 19.172,0 41.84,-6.91 67.211,-21.56 77.824,-44.93 130.996,-134.79 130.996,-215.06 0,-42.81 -12.699,-64.52 -33.351,-64.52 -6.965,0 -14.836,2.47 -23.426,7.43 -18.836,10.88 -32.129,28.15 -37.938,49.73 -4.972,-6.31 -11.551,-9.6 -19.726,-9.6 -7.766,0 -16.981,2.97 -27.637,9.12 -35.723,20.63 -63.984,69.56 -63.984,117.85 0,34.29 14.293,52.48 35.593,52.48 8.504,0 18.118,-2.9 28.391,-8.83 18.269,-10.55 32.684,-26.22 42.644,-45.73 v 18.87 l 37.668,-21.75 v -103.61 0 c 0,-15.35 5.829,-23.83 13.301,-28.15 2.313,-1.33 4.461,-2.01 6.43,-2.01 8.871,0 14.066,13.86 14.066,44.23 v 0 0 c 0,64.92 -41.55,133.68 -103.027,169.17 -19.117,11.04 -36.277,16.29 -50.852,16.29 -32.515,0 -52.183,-26.1 -52.183,-72.25 v 0 0 c 0,-68.12 40.437,-139.75 101.933,-175.25 17.43,-10.08 37.098,-17.27 54.551,-17.43 l 8.867,-34.54 c -0.148,-0.01 -0.296,-0.01 -0.445,-0.01 m -98.715,186.46 v 0 c 0,-27.51 14.121,-52.29 34.344,-63.97 5.957,-3.44 11.445,-5.18 16.211,-5.18 11.191,0 18.41,9.59 18.41,29.33 v 0 0 c 0,27.82 -14.68,51.96 -34.621,63.48 -5.988,3.46 -11.441,5.17 -16.152,5.17 -11.2,0 -18.192,-9.7 -18.192,-28.83 v 0"
         style="fill:#fae9f5;fill-opacity:1;fill-rule:nonzero;stroke:none"
         id="path180" />
      <path
         d="m 722.016,2517.69 -397.684,229.6 c -12.004,6.93 -23.019,7.73 -31.711,3.48 h -0.008 c -1.066,-0.53 -2.101,-1.13 -3.097,-1.8 l -86.485,-50.7 0.528,0.27 c -10.86,-6.16 -17.762,-20.57 -17.762,-41.14 v -442.21 c 0,-37.41 22.742,-80.87 50.808,-97.07 l 397.688,-229.61 c 13.574,-7.83 25.879,-7.79 34.988,-1.48 l -0.683,-0.54 85.898,50.41 v 0 c 11.203,5.97 18.332,20.57 18.332,41.51 v 442.21 c 0,37.41 -22.746,80.87 -50.812,97.07"
         style="fill:#ad58b2;fill-opacity:1;fill-rule:nonzero;stroke:none"
         id="path182" />
      <path
         d="m 758.598,2475.78 c -9.239,18.13 -22.196,33.61 -36.582,41.91 l -397.684,229.6 c -12.004,6.93 -23.019,7.73 -31.711,3.48 h -0.008 c -1.066,-0.53 -2.101,-1.13 -3.097,-1.8 l -86.485,-50.7 c 8.957,5.36 20.703,4.97 33.574,-2.46 L 634.293,2466.2 c 14.883,-8.59 28.23,-24.88 37.52,-43.84 l 86.785,53.42"
         style="fill:#ad58b2;fill-opacity:1;fill-rule:nonzero;stroke:none"
         id="path184" />
      <path
         d="m 685.102,1926.92 c 0,-19.78 -6.368,-33.9 -16.504,-40.43 l 85.898,50.41 v 0 c 11.203,5.97 18.332,20.57 18.332,41.51 v 442.21 c 0,18.24 -5.441,37.89 -14.23,55.16 l -86.785,-53.42 c 8.23,-16.79 13.289,-35.66 13.289,-53.23 v -442.21"
         style="fill:#ad58b2;fill-opacity:1;fill-rule:nonzero;stroke:none"
         id="path186" />
      <path
         d="m 671.813,2422.36 c -9.29,18.96 -22.637,35.25 -37.52,43.84 l -397.688,229.61 c -7.156,4.13 -13.964,6.09 -20.14,6.09 -4.77,0 -9.164,-1.17 -13.043,-3.4 l 86.094,50.47 c 0.996,0.67 2.031,1.27 3.097,1.8 h 0.008 c 3.508,1.72 7.391,2.61 11.567,2.61 6.175,0 12.984,-1.95 20.144,-6.09 l 397.684,-229.6 c 14.386,-8.3 27.343,-23.78 36.582,-41.91 l -86.785,-53.42"
         style="fill:#893c9b;fill-opacity:1;fill-rule:nonzero;stroke:none"
         id="path188" />
      <path
         d="m 203.031,2698.27 c 0.129,0.08 0.258,0.15 0.391,0.23 l -0.391,-0.23"
         style="fill:#893c9b;fill-opacity:1;fill-rule:nonzero;stroke:none"
         id="path190" />
      <path
         d="m 668.598,1886.49 c 10.136,6.53 16.504,20.65 16.504,40.43 v 442.21 0 c 0,17.57 -5.059,36.44 -13.289,53.23 l 86.785,53.42 c 8.789,-17.27 14.23,-36.92 14.23,-55.16 v -442.21 c 0,-20.94 -7.129,-35.54 -18.332,-41.51 v 0 l -85.898,-50.41"
         style="fill:#45214d;fill-opacity:1;fill-rule:nonzero;stroke:none"
         id="path192" />
      <path
         d="m 390.953,2319.97 -95.871,155.81 v -211.17 l 95.871,55.36"
         style="fill:#ad58b2;fill-opacity:1;fill-rule:nonzero;stroke:none"
         id="path194" />
      <path
         d="m 480.102,2275.08 95.714,-165.77 v 210.79 l -95.714,-45.02"
         style="fill:#ad58b2;fill-opacity:1;fill-rule:nonzero;stroke:none"
         id="path196" />
      <path
         d="m 309.645,2482.61 98.476,-160.04 1.121,-1.27 0.41,-1.21 28.868,-46.91 24.777,11.66 1.277,1.13 c 1.035,0.59 2.141,0.89 3.242,1 l 99.571,46.83 -257.742,148.81"
         style="fill:#ad58b2;fill-opacity:1;fill-rule:nonzero;stroke:none"
         id="path198" />
      <path
         d="m 465.582,2268.25 -26.73,-12.58 c -1.094,-0.51 -2.254,-0.76 -3.387,-0.76 -2.707,0 -5.324,1.37 -6.817,3.81 l -29.316,47.63 -96.262,-55.58 258.907,-149.48 -96.395,166.96"
         style="fill:#ad58b2;fill-opacity:1;fill-rule:nonzero;stroke:none"
         id="path200" />
      <path
         d="m 295.082,2264.61 v 211.17 l 95.871,-155.81 -95.871,-55.36"
         style="fill:#fae9f5;fill-opacity:1;fill-rule:nonzero;stroke:none"
         id="path202" />
      <path
         d="m 575.816,2109.31 -95.714,165.77 95.714,45.02 v -210.79"
         style="fill:#fae9f5;fill-opacity:1;fill-rule:nonzero;stroke:none"
         id="path204" />
      <path
         d="m 438.52,2273.18 -28.868,46.91 -0.41,1.21 -1.121,1.27 -98.476,160.04 257.742,-148.81 -99.571,-46.83 c -1.101,-0.11 -2.207,-0.41 -3.242,-1 l -1.277,-1.13 -24.777,-11.66"
         style="fill:#fae9f5;fill-opacity:1;fill-rule:nonzero;stroke:none"
         id="path206" />
      <path
         d="m 561.977,2101.29 -258.907,149.48 96.262,55.58 29.316,-47.63 c 1.493,-2.44 4.11,-3.81 6.817,-3.81 1.133,0 2.293,0.25 3.387,0.76 l 26.73,12.58 96.395,-166.96"
         style="fill:#fae9f5;fill-opacity:1;fill-rule:nonzero;stroke:none"
         id="path208" />
      <path
         d="m 722.016,4093.2 -397.684,229.6 c -12.004,6.93 -23.019,7.73 -31.711,3.48 l -0.008,-0.01 c -1.066,-0.52 -2.101,-1.12 -3.097,-1.79 l -86.485,-50.7 0.528,0.27 c -10.86,-6.16 -17.762,-20.57 -17.762,-41.15 v -442.2 c 0,-37.41 22.742,-80.87 50.808,-97.07 l 397.688,-229.61 c 13.574,-7.83 25.879,-7.8 34.988,-1.49 l -0.683,-0.53 85.898,50.41 v 0 c 11.203,5.96 18.332,20.56 18.332,41.51 v 442.2 c 0,37.42 -22.746,80.88 -50.812,97.08"
         style="fill:#ad58b2;fill-opacity:1;fill-rule:nonzero;stroke:none"
         id="path210" />
      <path
         d="m 758.598,4051.28 c -9.239,18.14 -22.196,33.62 -36.582,41.92 l -397.684,229.6 c -12.004,6.93 -23.019,7.73 -31.711,3.48 l -0.008,-0.01 c -1.066,-0.52 -2.101,-1.12 -3.097,-1.79 l -86.485,-50.7 c 8.957,5.36 20.703,4.97 33.574,-2.47 l 397.688,-229.6 c 14.883,-8.59 28.23,-24.88 37.52,-43.84 l 86.785,53.41"
         style="fill:#ad58b2;fill-opacity:1;fill-rule:nonzero;stroke:none"
         id="path212" />
      <path
         d="m 685.102,3502.43 c 0,-19.78 -6.368,-33.9 -16.504,-40.43 l 85.898,50.41 v 0 c 11.203,5.96 18.332,20.56 18.332,41.51 v 442.2 c 0,18.24 -5.441,37.9 -14.23,55.16 l -86.785,-53.41 c 8.23,-16.79 13.289,-35.66 13.289,-53.24 v -442.2"
         style="fill:#ad58b2;fill-opacity:1;fill-rule:nonzero;stroke:none"
         id="path214" />
      <path
         d="m 671.813,3997.87 c -9.29,18.96 -22.637,35.25 -37.52,43.84 l -397.688,229.6 c -7.156,4.14 -13.964,6.09 -20.14,6.09 -4.77,0 -9.16,-1.17 -13.039,-3.39 l 86.09,50.47 c 0.996,0.67 2.031,1.27 3.097,1.79 l 0.008,0.01 c 3.508,1.72 7.391,2.61 11.567,2.61 6.175,0 12.984,-1.96 20.144,-6.09 l 397.684,-229.6 c 14.386,-8.3 27.343,-23.78 36.582,-41.92 l -86.785,-53.41"
         style="fill:#893c9b;fill-opacity:1;fill-rule:nonzero;stroke:none"
         id="path216" />
      <path
         d="m 203.031,4273.78 c 0.133,0.08 0.262,0.15 0.395,0.23 l -0.395,-0.23"
         style="fill:#893c9b;fill-opacity:1;fill-rule:nonzero;stroke:none"
         id="path218" />
      <path
         d="m 668.598,3462 c 10.136,6.53 16.504,20.65 16.504,40.43 v 442.2 0 c 0,17.58 -5.059,36.45 -13.289,53.24 l 86.785,53.41 c 8.789,-17.26 14.23,-36.92 14.23,-55.16 v -442.2 c 0,-20.95 -7.129,-35.55 -18.332,-41.51 v 0 L 668.598,3462"
         style="fill:#45214d;fill-opacity:1;fill-rule:nonzero;stroke:none"
         id="path220" />
      <path
         d="m 555.035,3693.19 c -15.285,25.14 -30.715,50.19 -46.015,75.31 -7.032,11.54 -14.942,18.23 -24.082,20.19 -7.422,1.59 -14.856,3.21 -22.403,5.48 -2.004,0.6 -5.195,3.18 -6.574,5.57 -25.496,44.17 -45.41,89.54 -59.258,136.03 -0.644,2.16 -0.195,5.05 0.82,6.07 4.7,4.71 9.68,9.02 14.739,13.21 6.23,5.15 7.304,13.94 3.836,26.48 -7.391,26.71 -14.532,53.39 -21.856,80.08 -4.793,17.47 -15.613,30.09 -28.64,33.25 -18.137,4.41 -34.493,3.83 -49.016,-1.78 -6.113,-2.36 -9.266,-7.88 -9.336,-17.32 2.531,-18.32 4.277,-36.4 7.707,-54.99 24.734,-134.13 84.219,-257.66 178.094,-370.44 7.394,-8.88 14.785,-13.08 22.277,-12.75 16.485,0.72 30.613,6.05 42.235,16.27 8.906,7.82 8,22.03 -2.528,39.34"
         style="fill:#ad58b2;fill-opacity:1;fill-rule:nonzero;stroke:none"
         id="path222" />
      <path
         d="m 553.844,3829.14 c -1.621,26.74 -9.531,54.27 -23.633,82.44 -10.207,20.38 -22.734,38.73 -37.461,55.06 -3.957,4.4 -7.285,5.83 -9.199,2.46 -1.953,-3.45 -0.059,-7.98 3.789,-12.3 1.308,-1.47 2.605,-2.95 3.875,-4.49 28.984,-35.17 45.625,-72.93 49.824,-113.28 0.324,-3.08 -0.223,-6.12 0.891,-9.12 1.179,-3.17 3.73,-7.5 5.918,-9.05 2.07,-1.47 4.453,0 6.152,0.14 -0.07,3.93 -0.031,6 -0.156,8.14"
         style="fill:#ad58b2;fill-opacity:1;fill-rule:nonzero;stroke:none"
         id="path224" />
      <path
         d="m 463.219,3911.24 c 13.328,-15.38 20.293,-31.77 21.679,-49.62 0.215,-2.69 2.442,-6.31 3.145,-8.05 6.082,-5.04 9.09,-3.34 9.09,2.94 0.019,18.8 -13.008,48.44 -28.133,64.15 -3.762,3.91 -6.934,5.09 -8.73,1.81 -1.661,-3.04 -0.411,-7.36 2.949,-11.23"
         style="fill:#ad58b2;fill-opacity:1;fill-rule:nonzero;stroke:none"
         id="path226" />
      <path
         d="m 514.52,3637.56 c -7.215,0 -14.34,4.21 -21.469,12.77 -93.875,112.78 -153.36,236.31 -178.094,370.44 -3.43,18.59 -5.176,36.67 -7.707,54.99 0.07,9.44 3.223,14.96 9.336,17.32 8.117,3.13 16.805,4.7 26.059,4.7 7.304,0 14.957,-0.98 22.957,-2.92 13.027,-3.16 23.847,-15.78 28.64,-33.25 7.324,-26.69 14.465,-53.37 21.856,-80.08 1.289,-4.65 1.949,-8.79 1.953,-12.42 0.008,-6.15 -1.871,-10.82 -5.789,-14.06 -5.059,-4.19 -10.039,-8.5 -14.739,-13.21 -0.687,-0.7 -1.117,-2.25 -1.121,-3.86 0,-0.75 0.094,-1.52 0.301,-2.21 13.848,-46.49 33.762,-91.86 59.258,-136.03 1.379,-2.39 4.57,-4.97 6.574,-5.57 7.547,-2.27 14.981,-3.89 22.403,-5.48 9.14,-1.96 17.05,-8.65 24.082,-20.19 15.3,-25.12 30.73,-50.17 46.015,-75.31 5.715,-9.4 8.594,-17.89 8.61,-24.93 0.007,-5.93 -2.012,-10.84 -6.082,-14.41 -11.622,-10.22 -25.75,-15.55 -42.235,-16.27 -0.269,-0.01 -0.539,-0.02 -0.808,-0.02"
         style="fill:#fae9f5;fill-opacity:1;fill-rule:nonzero;stroke:none"
         id="path228" />
      <path
         d="m 549.949,3820.21 c -0.711,0 -1.426,0.17 -2.101,0.65 -2.188,1.55 -4.739,5.88 -5.918,9.05 -1.114,3 -0.567,6.04 -0.891,9.12 -4.199,40.35 -20.84,78.11 -49.824,113.28 -1.27,1.54 -2.567,3.02 -3.875,4.49 -2.797,3.14 -4.563,6.39 -4.567,9.25 -0.003,1.08 0.243,2.1 0.778,3.05 0.722,1.28 1.652,1.86 2.742,1.86 1.781,0 4,-1.58 6.457,-4.32 14.727,-16.33 27.254,-34.68 37.461,-55.06 14.102,-28.17 22.012,-55.7 23.633,-82.44 0.125,-2.14 0.086,-4.21 0.156,-8.14 -1.145,-0.09 -2.594,-0.79 -4.051,-0.79"
         style="fill:#fae9f5;fill-opacity:1;fill-rule:nonzero;stroke:none"
         id="path230" />
      <path
         d="m 493.863,3850.62 c -1.453,0 -3.39,0.94 -5.82,2.95 -0.703,1.74 -2.93,5.36 -3.145,8.05 -1.386,17.85 -8.351,34.24 -21.679,49.62 -2.364,2.72 -3.684,5.66 -3.68,8.23 0,1.08 0.238,2.1 0.731,3 0.714,1.3 1.648,1.91 2.753,1.91 1.665,0 3.715,-1.37 5.977,-3.72 15.125,-15.71 28.152,-45.35 28.133,-64.15 0,-3.77 -1.082,-5.89 -3.27,-5.89"
         style="fill:#fae9f5;fill-opacity:1;fill-rule:nonzero;stroke:none"
         id="path232" />
      <path
         d="m 2762.47,4358.05 93.72,-53.32 v 33.16 c -0.15,2.36 -0.31,4.73 -0.31,7.05 0,2.32 0.16,4.51 0.31,6.7 v 0.78 l 0.04,-0.02 c 3.37,43.96 36.65,60.81 77.28,37.35 17.31,-9.99 33.23,-25.81 46.14,-44.32 9.17,59.71 57.87,81.25 116.75,47.27 65.41,-37.77 118.43,-129.61 118.43,-205.13 l 0.06,-71.06 c 0.01,-11.45 6.07,-22.03 15.95,-27.82 l 55.13,-32.34 c 24.33,-14.28 39.27,-40.37 39.27,-68.57 0,-25.2 -27.29,-40.95 -49.11,-28.35 l -512.25,295.92 c -27.68,15.99 -44.73,45.53 -44.73,77.5 0,22.23 23.99,36.19 43.32,25.2"
         style="fill:#e2e2e0;fill-opacity:1;fill-rule:nonzero;stroke:none"
         id="path234" />
      <path
         d="m 3476.76,4371.9 68.17,-38.77 v 24.12 c -0.12,1.71 -0.23,3.43 -0.23,5.12 0,1.69 0.11,3.28 0.23,4.87 v 0.57 l 0.02,-0.01 c 2.45,31.97 26.66,44.22 56.2,27.16 12.59,-7.27 24.17,-18.77 33.56,-32.24 6.66,43.43 42.08,59.1 84.89,34.37 47.57,-27.46 86.14,-94.24 86.14,-149.16 l 0.04,-51.68 c 0,-8.32 4.41,-16.02 11.59,-20.23 l 40.1,-23.52 c 17.68,-10.37 28.55,-29.35 28.55,-49.86 0,-18.33 -19.84,-29.78 -35.71,-20.62 l -372.51,215.19 c -20.14,11.63 -32.54,33.12 -32.54,56.37 0,16.17 17.45,26.32 31.5,18.32"
         style="fill:#e2e2e0;fill-opacity:1;fill-rule:nonzero;stroke:none"
         id="path236" />
    </g>
  </g>
</svg>
